<svg width="466" height="220" viewBox="0 0 466 220" fill="none" xmlns="http://www.w3.org/2000/svg">
<path d="M176.5 73.5V52.0174H152.5V32.5L290 2V120" stroke="#F1B666" stroke-width="3"/>
<path d="M43.94 170.6V207H40.248V177.88L25.948 202.372H24.128L9.828 178.036V207H6.136V170.6H9.308L25.116 197.588L40.768 170.6H43.94ZM78.2023 194.468H55.3223C55.5303 197.311 56.6223 199.616 58.5983 201.384C60.5743 203.117 63.0703 203.984 66.0863 203.984C67.785 203.984 69.345 203.689 70.7663 203.1C72.1876 202.476 73.4183 201.575 74.4583 200.396L76.5383 202.788C75.325 204.244 73.7996 205.353 71.9623 206.116C70.1596 206.879 68.1663 207.26 65.9823 207.26C63.1743 207.26 60.6783 206.671 58.4943 205.492C56.345 204.279 54.6636 202.615 53.4503 200.5C52.237 198.385 51.6303 195.993 51.6303 193.324C51.6303 190.655 52.2023 188.263 53.3463 186.148C54.525 184.033 56.1196 182.387 58.1303 181.208C60.1756 180.029 62.4636 179.44 64.9943 179.44C67.525 179.44 69.7956 180.029 71.8063 181.208C73.817 182.387 75.3943 184.033 76.5383 186.148C77.6823 188.228 78.2543 190.62 78.2543 193.324L78.2023 194.468ZM64.9943 182.612C62.3596 182.612 60.141 183.461 58.3383 185.16C56.5703 186.824 55.565 189.008 55.3223 191.712H74.7183C74.4756 189.008 73.453 186.824 71.6503 185.16C69.8823 183.461 67.6636 182.612 64.9943 182.612ZM108.597 194.832H102.669V207H98.9771V194.832H93.0491L84.6771 207H80.2571L90.0851 192.908L81.0371 179.648H85.0411L93.0491 191.66H98.9771V179.648H102.669V191.66H108.597L116.657 179.648H120.661L111.613 192.96L121.441 207H117.021L108.597 194.832Z" fill="#F1B666"/>
<path d="M140.638 179.44C143.203 179.44 145.526 180.029 147.606 181.208C149.686 182.352 151.315 183.981 152.494 186.096C153.673 188.211 154.262 190.62 154.262 193.324C154.262 196.063 153.673 198.489 152.494 200.604C151.315 202.719 149.686 204.365 147.606 205.544C145.561 206.688 143.238 207.26 140.638 207.26C138.419 207.26 136.409 206.809 134.606 205.908C132.838 204.972 131.382 203.62 130.238 201.852V217.088H126.546V179.648H130.082V185.056C131.191 183.253 132.647 181.867 134.45 180.896C136.287 179.925 138.35 179.44 140.638 179.44ZM140.378 203.984C142.285 203.984 144.018 203.551 145.578 202.684C147.138 201.783 148.351 200.517 149.218 198.888C150.119 197.259 150.57 195.404 150.57 193.324C150.57 191.244 150.119 189.407 149.218 187.812C148.351 186.183 147.138 184.917 145.578 184.016C144.018 183.115 142.285 182.664 140.378 182.664C138.437 182.664 136.686 183.115 135.126 184.016C133.601 184.917 132.387 186.183 131.486 187.812C130.619 189.407 130.186 191.244 130.186 193.324C130.186 195.404 130.619 197.259 131.486 198.888C132.387 200.517 133.601 201.783 135.126 202.684C136.686 203.551 138.437 203.984 140.378 203.984ZM185.074 194.468H162.194C162.402 197.311 163.494 199.616 165.47 201.384C167.446 203.117 169.942 203.984 172.958 203.984C174.657 203.984 176.217 203.689 177.638 203.1C179.06 202.476 180.29 201.575 181.33 200.396L183.41 202.788C182.197 204.244 180.672 205.353 178.834 206.116C177.032 206.879 175.038 207.26 172.854 207.26C170.046 207.26 167.55 206.671 165.366 205.492C163.217 204.279 161.536 202.615 160.322 200.5C159.109 198.385 158.502 195.993 158.502 193.324C158.502 190.655 159.074 188.263 160.218 186.148C161.397 184.033 162.992 182.387 165.002 181.208C167.048 180.029 169.336 179.44 171.866 179.44C174.397 179.44 176.668 180.029 178.678 181.208C180.689 182.387 182.266 184.033 183.41 186.148C184.554 188.228 185.126 190.62 185.126 193.324L185.074 194.468ZM171.866 182.612C169.232 182.612 167.013 183.461 165.21 185.16C163.442 186.824 162.437 189.008 162.194 191.712H181.59C181.348 189.008 180.325 186.824 178.522 185.16C176.754 183.461 174.536 182.612 171.866 182.612ZM211.603 182.924H195.951V207H192.259V179.648H211.603V182.924ZM215.899 179.648H219.591V201.384L237.843 179.648H241.119V207H237.427V185.264L219.227 207H215.899V179.648ZM261.944 207.26C259.309 207.26 256.934 206.671 254.82 205.492C252.705 204.279 251.041 202.615 249.828 200.5C248.614 198.385 248.008 195.993 248.008 193.324C248.008 190.655 248.614 188.263 249.828 186.148C251.041 184.033 252.705 182.387 254.82 181.208C256.934 180.029 259.309 179.44 261.944 179.44C264.578 179.44 266.953 180.029 269.068 181.208C271.182 182.387 272.829 184.033 274.008 186.148C275.221 188.263 275.828 190.655 275.828 193.324C275.828 195.993 275.221 198.385 274.008 200.5C272.829 202.615 271.182 204.279 269.068 205.492C266.953 206.671 264.578 207.26 261.944 207.26ZM261.944 203.984C263.885 203.984 265.618 203.551 267.144 202.684C268.704 201.783 269.917 200.517 270.784 198.888C271.65 197.259 272.084 195.404 272.084 193.324C272.084 191.244 271.65 189.389 270.784 187.76C269.917 186.131 268.704 184.883 267.144 184.016C265.618 183.115 263.885 182.664 261.944 182.664C260.002 182.664 258.252 183.115 256.692 184.016C255.166 184.883 253.953 186.131 253.052 187.76C252.185 189.389 251.752 191.244 251.752 193.324C251.752 195.404 252.185 197.259 253.052 198.888C253.953 200.517 255.166 201.783 256.692 202.684C258.252 203.551 260.002 203.984 261.944 203.984ZM282.678 179.648H286.37V191.764H303.582V179.648H307.274V207H303.582V194.936H286.37V207H282.678V179.648ZM328.168 207.26C325.464 207.26 323.037 206.671 320.888 205.492C318.773 204.313 317.109 202.667 315.896 200.552C314.683 198.403 314.076 195.993 314.076 193.324C314.076 190.655 314.683 188.263 315.896 186.148C317.109 184.033 318.773 182.387 320.888 181.208C323.037 180.029 325.464 179.44 328.168 179.44C330.525 179.44 332.623 179.908 334.46 180.844C336.332 181.745 337.805 183.08 338.88 184.848L336.124 186.72C335.223 185.368 334.079 184.363 332.692 183.704C331.305 183.011 329.797 182.664 328.168 182.664C326.192 182.664 324.407 183.115 322.812 184.016C321.252 184.883 320.021 186.131 319.12 187.76C318.253 189.389 317.82 191.244 317.82 193.324C317.82 195.439 318.253 197.311 319.12 198.94C320.021 200.535 321.252 201.783 322.812 202.684C324.407 203.551 326.192 203.984 328.168 203.984C329.797 203.984 331.305 203.655 332.692 202.996C334.079 202.337 335.223 201.332 336.124 199.98L338.88 201.852C337.805 203.62 336.332 204.972 334.46 205.908C332.588 206.809 330.491 207.26 328.168 207.26ZM363.721 182.924H353.373V207H349.681V182.924H339.333V179.648H363.721V182.924ZM382.111 179.44C384.676 179.44 386.999 180.029 389.079 181.208C391.159 182.352 392.788 183.981 393.967 186.096C395.146 188.211 395.735 190.62 395.735 193.324C395.735 196.063 395.146 198.489 393.967 200.604C392.788 202.719 391.159 204.365 389.079 205.544C387.034 206.688 384.711 207.26 382.111 207.26C379.892 207.26 377.882 206.809 376.079 205.908C374.311 204.972 372.855 203.62 371.711 201.852V217.088H368.019V179.648H371.555V185.056C372.664 183.253 374.12 181.867 375.923 180.896C377.76 179.925 379.823 179.44 382.111 179.44ZM381.851 203.984C383.758 203.984 385.491 203.551 387.051 202.684C388.611 201.783 389.824 200.517 390.691 198.888C391.592 197.259 392.043 195.404 392.043 193.324C392.043 191.244 391.592 189.407 390.691 187.812C389.824 186.183 388.611 184.917 387.051 184.016C385.491 183.115 383.758 182.664 381.851 182.664C379.91 182.664 378.159 183.115 376.599 184.016C375.074 184.917 373.86 186.183 372.959 187.812C372.092 189.407 371.659 191.244 371.659 193.324C371.659 195.404 372.092 197.259 372.959 198.888C373.86 200.517 375.074 201.783 376.599 202.684C378.159 203.551 379.91 203.984 381.851 203.984ZM413.911 207.26C411.277 207.26 408.902 206.671 406.787 205.492C404.673 204.279 403.009 202.615 401.795 200.5C400.582 198.385 399.975 195.993 399.975 193.324C399.975 190.655 400.582 188.263 401.795 186.148C403.009 184.033 404.673 182.387 406.787 181.208C408.902 180.029 411.277 179.44 413.911 179.44C416.546 179.44 418.921 180.029 421.035 181.208C423.15 182.387 424.797 184.033 425.975 186.148C427.189 188.263 427.795 190.655 427.795 193.324C427.795 195.993 427.189 198.385 425.975 200.5C424.797 202.615 423.15 204.279 421.035 205.492C418.921 206.671 416.546 207.26 413.911 207.26ZM413.911 203.984C415.853 203.984 417.586 203.551 419.111 202.684C420.671 201.783 421.885 200.517 422.751 198.888C423.618 197.259 424.051 195.404 424.051 193.324C424.051 191.244 423.618 189.389 422.751 187.76C421.885 186.131 420.671 184.883 419.111 184.016C417.586 183.115 415.853 182.664 413.911 182.664C411.97 182.664 410.219 183.115 408.659 184.016C407.134 184.883 405.921 186.131 405.019 187.76C404.153 189.389 403.719 191.244 403.719 193.324C403.719 195.404 404.153 197.259 405.019 198.888C405.921 200.517 407.134 201.783 408.659 202.684C410.219 203.551 411.97 203.984 413.911 203.984ZM434.646 179.648H438.338V201.384L456.59 179.648H459.866V207H456.174V185.264L437.974 207H434.646V179.648ZM447.074 175.696C444.717 175.696 442.845 175.107 441.458 173.928C440.071 172.749 439.361 171.085 439.326 168.936H441.978C442.013 170.288 442.498 171.38 443.434 172.212C444.37 173.009 445.583 173.408 447.074 173.408C448.565 173.408 449.778 173.009 450.714 172.212C451.685 171.38 452.187 170.288 452.222 168.936H454.874C454.839 171.085 454.111 172.749 452.69 173.928C451.303 175.107 449.431 175.696 447.074 175.696Z" fill="#5D5D5D"/>
<path d="M36 160.5H89V78H183.5V160.5H278V125.5H376V160.5H431" stroke="#5D5D5D" stroke-width="3"/>
</svg>
